<?xml version="1.0" standalone="no"?>
<!DOCTYPE svg PUBLIC "-//W3C//DTD SVG 20010904//EN"
 "http://www.w3.org/TR/2001/REC-SVG-20010904/DTD/svg10.dtd">
<svg version="1.0" xmlns="http://www.w3.org/2000/svg"
 width="260.000000pt" height="260.000000pt" viewBox="0 0 260.000000 260.000000"
 preserveAspectRatio="xMidYMid meet">
<metadata>
Created by potrace 1.14, written by Peter Selinger 2001-2017
</metadata>
<g transform="translate(0.000000,260.000000) scale(0.100000,-0.100000)"
fill="#000000" stroke="none">
<path d="M1179 2576 c-2 -2 -29 -6 -59 -9 -79 -9 -233 -51 -320 -88 -409 -173
-707 -558 -765 -989 -3 -19 -7 -49 -10 -65 -9 -60 -24 -58 416 -57 222 0 420
1 440 1 33 1 37 4 48 44 69 233 345 344 556 222 84 -48 163 -150 180 -232 5
-25 12 -33 28 -34 12 0 211 0 441 0 324 0 421 3 427 12 9 15 4 67 -16 171 -80
408 -364 759 -748 924 -73 32 -219 75 -297 89 -42 7 -314 17 -321 11z"/>
<path d="M1207 1563 c-138 -46 -217 -205 -172 -348 63 -198 313 -259 460 -110
113 112 113 278 0 390 -79 79 -181 103 -288 68z"/>
<path d="M54 1231 c-10 -2 -22 -8 -25 -13 -8 -13 -2 -72 17 -163 80 -380 308
-687 657 -879 37 -21 67 -35 67 -31 0 4 6 3 13 -3 31 -26 226 -85 332 -100 67
-9 295 -9 368 1 129 18 331 89 450 159 122 71 276 202 352 298 96 122 200 312
206 375 0 6 5 15 10 21 10 12 47 163 55 226 3 24 7 52 9 64 7 46 9 46 -391 46
-208 -1 -407 -1 -441 -1 l-61 -1 -17 -49 c-32 -97 -102 -173 -205 -223 -58
-28 -74 -31 -155 -31 -75 0 -99 4 -145 25 -105 48 -183 131 -215 229 -15 45
-19 49 -48 49 -206 3 -818 4 -833 1z"/>
</g>
</svg>
